<?xml version="1.0" encoding="UTF-8"?>
<svg version="1.1" xmlns="http://www.w3.org/2000/svg" width="192" height="192">
<path d="M0 0 C63.36 0 126.72 0 192 0 C192 63.36 192 126.72 192 192 C128.64 192 65.28 192 0 192 C0 128.64 0 65.28 0 0 Z " fill="#FDFEFE" transform="translate(0,0)"/>
<path d="M0 0 C3.25696479 0.41755959 4.63443291 0.63443291 7 3 C6.89834392 6.76127491 6.00920966 7.98989184 3.4375 10.8125 C2.633125 11.534375 1.82875 12.25625 1 13 C2.32 13 3.64 13 5 13 C5 19.27 5 25.54 5 32 C3.35 32 1.7 32 0 32 C-0.33 32.33 -0.66 32.66 -1 33 C-3.375 33.3125 -3.375 33.3125 -6 33 C-7.8125 31 -7.8125 31 -9 29 C-11.96175123 29.61277612 -13.38058783 30.25372522 -16 32 C-18.6875 32.125 -18.6875 32.125 -21 32 C-19.94685471 29.73168707 -18.96477715 27.95955895 -17.3125 26.0625 C-15.77137864 24.06446615 -15.77137864 24.06446615 -16.0625 21.5625 C-17.1860924 18.49134745 -18.91177617 16.49239618 -21 14 C-21 13.34 -21 12.68 -21 12 C-18.8125 11.6875 -18.8125 11.6875 -16 12 C-13.1875 14.5 -13.1875 14.5 -11 17 C-9.69759098 15.46739776 -8.40852488 13.92345173 -7.125 12.375 C-6.40570313 11.51648438 -5.68640625 10.65796875 -4.9453125 9.7734375 C-2.92651792 6.89523639 -1.989127 4.351508 -1 1 C-0.67 0.67 -0.34 0.34 0 0 Z " fill="#F4F9F8" transform="translate(52,92)"/>
<path d="M0 0 C1.918125 0.185625 1.918125 0.185625 3.875 0.375 C4.865 0.375 5.855 0.375 6.875 0.375 C8.195 0.375 9.515 0.375 10.875 0.375 C10.875 6.975 10.875 13.575 10.875 20.375 C9.555 20.375 8.235 20.375 6.875 20.375 C6.875 19.715 6.875 19.055 6.875 18.375 C5.885 19.035 4.895 19.695 3.875 20.375 C-1.30080071 20.95008897 -1.30080071 20.95008897 -4.125 20.375 C-7.38501542 17.19857472 -8.98010425 14.63076321 -9.5 10.125 C-8.90494128 4.17441281 -6.28657553 0.01159885 0 0 Z " fill="#365E77" transform="translate(18.125,103.625)"/>
<path d="M0 0 C3.46010619 0.39171013 5.57940736 1.16711917 8.16796875 3.55078125 C10.63567347 7.48394885 10.17732633 11.97164764 9.3125 16.375 C7.3125 19.5625 7.3125 19.5625 4.3125 21.375 C1.28589064 22.03426144 -0.49597277 21.83093246 -3.6875 21.375 C-6.65608157 19.16759319 -7.51615791 17.88902627 -8.6875 14.375 C-9.19224898 9.15926052 -9.19224898 9.15926052 -8.6875 6.375 C-6.25 3.4375 -6.25 3.4375 -3.6875 1.375 C-2.6875 0.375 -2.6875 0.375 0 0 Z " fill="#24506B" transform="translate(175.6875,102.625)"/>
<path d="M0 0 C2.69990662 1.79993774 4.5418865 3.083773 6 6 C6 7.98 6 9.96 6 12 C1.38 12 -3.24 12 -8 12 C-7.67 13.65 -7.34 15.3 -7 17 C-5.1128125 17.0309375 -5.1128125 17.0309375 -3.1875 17.0625 C-2.47980469 17.07410156 -1.77210937 17.08570312 -1.04296875 17.09765625 C1.20305461 17.08263217 1.20305461 17.08263217 4 16 C4 17.32 4 18.64 4 20 C0.54968739 21.72515631 -3.22716304 21.49677924 -7 21 C-10.03215675 18.80168636 -10.81654398 17.55036806 -12 14 C-12.37066773 8.99598565 -12.09881835 6.01698676 -9 2 C-5.48746854 -0.34168764 -4.13530644 -0.49623677 0 0 Z " fill="#2B556F" transform="translate(88,103)"/>
<path d="M0 0 C3.64146056 0.80345393 5.15231038 2.45282347 7.1953125 5.484375 C7.1953125 7.464375 7.1953125 9.444375 7.1953125 11.484375 C2.2453125 11.484375 -2.7046875 11.484375 -7.8046875 11.484375 C-6.8146875 13.134375 -5.8246875 14.784375 -4.8046875 16.484375 C-1.34668391 16.90110707 -1.34668391 16.90110707 2.1953125 16.484375 C3.5153125 16.484375 4.8353125 16.484375 6.1953125 16.484375 C6.1953125 17.144375 6.1953125 17.804375 6.1953125 18.484375 C2.47681534 20.96337311 -1.48305586 21.2297899 -5.8046875 20.484375 C-8.23588373 18.61422406 -9.44537923 17.20299155 -10.8046875 14.484375 C-11.33670714 10.04506361 -11.28164366 6.500499 -9.3671875 2.421875 C-6.11982911 -0.03344476 -4.00309363 -0.23780754 0 0 Z " fill="#2E5872" transform="translate(143.8046875,103.515625)"/>
<path d="M0 0 C3.33078275 1.97150884 6.43044751 4.15615276 9.3125 6.75 C8.9825 8.07 8.6525 9.39 8.3125 10.75 C5.51998391 10.33629391 4.23011969 9.68320515 2 7.875 C-3.96939261 3.15501514 -9.10022175 2.14498017 -16.609375 2.32421875 C-22.08406825 3.081505 -27.42216859 5.37335009 -31.27734375 9.41796875 C-32.6875 10.75 -32.6875 10.75 -35.6875 10.75 C-35.6875 8.625 -35.6875 8.625 -34.6875 5.75 C-25.48991224 -3.03928363 -11.62288425 -5.68891172 0 0 Z " fill="#3EA6A7" transform="translate(67.6875,69.25)"/>
<path d="M0 0 C6.29677848 0.46642804 6.29677848 0.46642804 8.70825195 2.29614258 C10.29072547 4.3834763 10.35146573 5.41835249 10.29296875 8.01171875 C10.28330078 8.76904297 10.27363281 9.52636719 10.26367188 10.30664062 C10.23853516 11.09232422 10.21339844 11.87800781 10.1875 12.6875 C10.16719727 13.88342773 10.16719727 13.88342773 10.14648438 15.10351562 C10.11117089 17.06929967 10.05736447 19.03473582 10 21 C8.68 21 7.36 21 6 21 C5.67 15.72 5.34 10.44 5 5 C3.02 5 1.04 5 -1 5 C-2.99616554 6.99616554 -2.40983427 10.81701963 -2.5625 13.5625 C-2.60568359 14.27341797 -2.64886719 14.98433594 -2.69335938 15.71679688 C-2.79971777 17.47761912 -2.90038846 19.2387832 -3 21 C-4.32 21 -5.64 21 -7 21 C-7 14.4 -7 7.8 -7 1 C-5.02 1 -3.04 1 -1 1 C-0.67 0.67 -0.34 0.34 0 0 Z " fill="#2C5771" transform="translate(104,103)"/>
<path d="M0 0 C2.80434789 1.90735085 3.77194266 2.7118129 4.68359375 6.01953125 C4.80927734 7.15455078 4.80927734 7.15455078 4.9375 8.3125 C2.05774828 7.88587012 0.90720344 7.28526477 -1.3046875 5.296875 C-6.07778058 1.86241142 -11.41187126 2.57236727 -17.0625 3.3125 C-19.48323771 4.38838343 -20.98925021 5.61137197 -23.0625 7.3125 C-24.3825 7.3125 -25.7025 7.3125 -27.0625 7.3125 C-26.74091271 4.31101864 -26.08096979 3.33044208 -23.875 1.1875 C-16.39159753 -3.80143498 -7.76660853 -4.8108451 0 0 Z " fill="#43A7A9" transform="translate(65.0625,77.6875)"/>
<path d="M0 0 C0.66 0.33 1.32 0.66 2 1 C2 1.99 2 2.98 2 4 C-1.3 3.67 -4.6 3.34 -8 3 C-8 4.32 -8 5.64 -8 7 C-7.28972656 7.20496094 -6.57945313 7.40992187 -5.84765625 7.62109375 C-4.92855469 7.89050781 -4.00945312 8.15992187 -3.0625 8.4375 C-2.14597656 8.70433594 -1.22945312 8.97117187 -0.28515625 9.24609375 C2 10 2 10 3 11 C3.57416268 16.28229665 3.57416268 16.28229665 1.5 18.875 C-2.21587044 20.5471417 -4.92779509 20.32319087 -9 20 C-9.99 19.34 -10.98 18.68 -12 18 C-11.505 16.515 -11.505 16.515 -11 15 C-7.7 15.66 -4.4 16.32 -1 17 C-1.33 15.68 -1.66 14.36 -2 13 C-5.42168849 11.33118065 -5.42168849 11.33118065 -9 10 C-11 8 -11 8 -11.375 5.0625 C-11 2 -11 2 -9.4375 0.0625 C-6.00095987 -1.43547903 -3.60009693 -0.80002154 0 0 Z " fill="#25516C" transform="translate(128,104)"/>
<path d="M0 0 C3.36875585 -0.36750064 5.87672462 -0.57975504 8.9375 1 C10.65701652 4.23673698 10.53653931 7.42307129 10 11 C8.875 13 8.875 13 7 14 C4 14.4375 4 14.4375 1 14 C-0.875 12.4375 -0.875 12.4375 -2 10 C-2.38503486 5.61060262 -2.47342266 3.71013399 0 0 Z " fill="#F7F8F9" transform="translate(15,107)"/>
<path d="M0 0 C0.7940625 0.01417969 1.588125 0.02835937 2.40625 0.04296875 C3.59734375 0.05263672 3.59734375 0.05263672 4.8125 0.0625 C6.90625 0.23046875 6.90625 0.23046875 8.90625 1.23046875 C8.90625 2.22046875 8.90625 3.21046875 8.90625 4.23046875 C6.26625 3.90046875 3.62625 3.57046875 0.90625 3.23046875 C0.90625 4.55046875 0.90625 5.87046875 0.90625 7.23046875 C1.834375 7.51921875 2.7625 7.80796875 3.71875 8.10546875 C6.90625 9.23046875 6.90625 9.23046875 9.90625 11.23046875 C10.55959631 16.34834818 10.55959631 16.34834818 8.66796875 18.90234375 C6.42317986 20.59464579 5.12878988 20.6026154 2.34375 20.54296875 C1.55871094 20.53910156 0.77367188 20.53523438 -0.03515625 20.53125 C-2.09375 20.23046875 -2.09375 20.23046875 -4.09375 18.23046875 C-4.09375 17.24046875 -4.09375 16.25046875 -4.09375 15.23046875 C-3.10375 15.56046875 -2.11375 15.89046875 -1.09375 16.23046875 C1.23924825 16.27001109 3.57333189 16.27448607 5.90625 16.23046875 C5.90625 15.24046875 5.90625 14.25046875 5.90625 13.23046875 C5.26816406 12.95332031 4.63007812 12.67617187 3.97265625 12.390625 C3.14636719 12.02839844 2.32007812 11.66617188 1.46875 11.29296875 C0.64503906 10.93332031 -0.17867187 10.57367188 -1.02734375 10.203125 C-3.09375 9.23046875 -3.09375 9.23046875 -4.09375 8.23046875 C-4.28125 5.29296875 -4.28125 5.29296875 -4.09375 2.23046875 C-2.09375 0.23046875 -2.09375 0.23046875 0 0 Z " fill="#28546F" transform="translate(64.09375,103.76953125)"/>
<path d="M0 0 C3.0625 0.3125 3.0625 0.3125 4.9375 1.375 C6.71046631 4.42844197 6.42593372 6.85987962 6.0625 10.3125 C4.9375 12.75 4.9375 12.75 3.0625 14.3125 C0 14.75 0 14.75 -2.9375 14.3125 C-5.02690868 11.17838698 -5.21114412 10.33799528 -5.1875 6.75 C-5.19265625 5.96496094 -5.1978125 5.17992188 -5.203125 4.37109375 C-4.74814812 0.84502297 -3.38252397 0.35984298 0 0 Z " fill="#F5F7F8" transform="translate(175.9375,106.6875)"/>
<path d="M0 0 C3.25696479 0.41755959 4.63443291 0.63443291 7 3 C7 5.4375 7 5.4375 6 8 C5.13375 8.4125 4.2675 8.825 3.375 9.25 C-1.4416036 11.74749817 -3.90829427 15.63685316 -7 20 C-7.99 19.67 -8.98 19.34 -10 19 C-9.39642079 15.64678219 -8.21154466 13.74168519 -6.0625 11.125 C-3.51634823 7.86616939 -2.08222134 5.0337341 -1 1 C-0.67 0.67 -0.34 0.34 0 0 Z " fill="#399EA6" transform="translate(52,92)"/>
<path d="M0 0 C2.2890625 -0.23046875 2.2890625 -0.23046875 5 0 C7.62606317 2.25170949 9.37646185 4.9580022 11 8 C11.30312108 12.14265481 8.82313666 15.36705062 6.41015625 18.6171875 C5 20 5 20 2.1875 20.4375 C1.465625 20.293125 0.74375 20.14875 0 20 C1.05314529 17.73168707 2.03522285 15.95955895 3.6875 14.0625 C5.22862136 12.06446615 5.22862136 12.06446615 4.9375 9.5625 C3.8139076 6.49134745 2.08822383 4.49239618 0 2 C0 1.34 0 0.68 0 0 Z " fill="#2E8FBC" transform="translate(31,104)"/>
<path d="M0 0 C3.0764962 0.59586874 3.96034705 0.96141875 6.3125 3.25 C8 6 8 6 8.0625 8.375 C6.59235503 12.00712287 4.40152483 14.92498481 2 18 C3.32 18.33 4.64 18.66 6 19 C4.35 19 2.7 19 1 19 C-0.25433458 15.23699626 -0.10695422 11.72789091 -0.0625 7.8125 C-0.05798828 7.06291016 -0.05347656 6.31332031 -0.04882812 5.54101562 C-0.03706354 3.69397617 -0.01912865 1.84697787 0 0 Z " fill="#F3F8FA" transform="translate(29,106)"/>
<path d="M0 0 C1.65 0 3.3 0 5 0 C5 6.27 5 12.54 5 19 C3.35 19 1.7 19 0 19 C0 12.73 0 6.46 0 0 Z " fill="#4EA6AA" transform="translate(52,105)"/>
<path d="M0 0 C3.125 1.25 3.125 1.25 5 3 C5 4.32 5 5.64 5 7 C0.25 6.125 0.25 6.125 -2 5 C-6.61826586 4.59841166 -8.43346178 5.17136624 -12 8 C-12.99 7.67 -13.98 7.34 -15 7 C-14.63587639 4.36010383 -14.24310905 3.22562705 -12.26171875 1.38671875 C-8.38689317 -0.98903787 -4.40158481 -0.52619915 0 0 Z " fill="#40A5A4" transform="translate(59,84)"/>
<path d="M0 0 C1.4540625 0.0309375 1.4540625 0.0309375 2.9375 0.0625 C0.9575 1.0525 0.9575 1.0525 -1.0625 2.0625 C-0.0725 2.7225 0.9175 3.3825 1.9375 4.0625 C-0.0425 4.7225 -2.0225 5.3825 -4.0625 6.0625 C-4.14381463 7.49905854 -4.20183559 8.9369483 -4.25 10.375 C-4.28480469 11.17550781 -4.31960937 11.97601563 -4.35546875 12.80078125 C-3.99196828 15.60700491 -3.24559126 16.32722233 -1.0625 18.0625 C-0.0725 18.7225 0.9175 19.3825 1.9375 20.0625 C-4.53880923 20.42908354 -4.53880923 20.42908354 -6.9375 18.75 C-9.48117387 14.9344892 -9.86695369 10.49997033 -9.0625 6.0625 C-6.625 3.125 -6.625 3.125 -4.0625 1.0625 C-3.0625 0.0625 -3.0625 0.0625 0 0 Z " fill="#2F5973" transform="translate(176.0625,102.9375)"/>
<path d="M0 0 C0.33 1.32 0.66 2.64 1 4 C4.63 4 8.26 4 12 4 C12 4.33 12 4.66 12 5 C8.37 5 4.74 5 1 5 C1.99 6.98 2.98 8.96 4 11 C5.0725 11 6.145 11 7.25 11 C9.83333333 11 12.41666667 11 15 11 C15 11.66 15 12.32 15 13 C11.28150284 15.47899811 7.32163164 15.7454149 3 15 C0.56880377 13.12984906 -0.64069173 11.71861655 -2 9 C-2.1875 5.5 -2.1875 5.5 -2 2 C-1.34 1.34 -0.68 0.68 0 0 Z " fill="#154562" transform="translate(135,109)"/>
<path d="M0 0 C0.99 0 1.98 0 3 0 C3 6.27 3 12.54 3 19 C2.34 19 1.68 19 1 19 C1 18.34 1 17.68 1 17 C0.01 16.67 -0.98 16.34 -2 16 C-1.67 15.34 -1.34 14.68 -1 14 C-0.76666713 7.91483944 -0.76666713 7.91483944 -2 2 C-1.34 2 -0.68 2 0 2 C0 1.34 0 0.68 0 0 Z " fill="#184765" transform="translate(25,104)"/>
<path d="M0 0 C0.99 0 1.98 0 3 0 C3 6.6 3 13.2 3 20 C2.01 20 1.02 20 0 20 C0 13.4 0 6.8 0 0 Z " fill="#11415F" transform="translate(161,104)"/>
<path d="M0 0 C3.25 -0.3125 3.25 -0.3125 7 0 C9.4375 2.1875 9.4375 2.1875 11 5 C11 6.65 11 8.3 11 10 C6.38 10 1.76 10 -3 10 C-3 9.67 -3 9.34 -3 9 C0.63 9 4.26 9 8 9 C6.85916824 5.96707046 6.85916824 5.96707046 5 3 C2.41585574 2.03093173 2.41585574 2.03093173 0 2 C0 1.34 0 0.68 0 0 Z " fill="#10415F" transform="translate(83,104)"/>
<path d="M0 0 C2 2 2 2 2 5 C-1.63 5 -5.26 5 -9 5 C-6.56337092 -1.0915727 -5.97057115 -1.64190707 0 0 Z " fill="#E6EAED" transform="translate(145,107)"/>
<path d="M0 0 C1.134375 0.020625 2.26875 0.04125 3.4375 0.0625 C4.0975 1.7125 4.7575 3.3625 5.4375 5.0625 C1.8075 5.0625 -1.8225 5.0625 -5.5625 5.0625 C-4.31580396 0.07571586 -4.31580396 0.07571586 0 0 Z " fill="#EEF1F3" transform="translate(85.5625,106.9375)"/>
<path d="M0 0 C0.70125 0.00515625 1.4025 0.0103125 2.125 0.015625 C2.82625 0.01046875 3.5275 0.0053125 4.25 0 C6.125 0.265625 6.125 0.265625 8.125 2.265625 C7.465 2.925625 6.805 3.585625 6.125 4.265625 C3.79166667 4.265625 1.45833333 4.265625 -0.875 4.265625 C-1.535 4.925625 -2.195 5.585625 -2.875 6.265625 C-3.865 6.265625 -4.855 6.265625 -5.875 6.265625 C-3.15994943 0.4476595 -3.15994943 0.4476595 0 0 Z " fill="#2C5772" transform="translate(15.875,103.734375)"/>
<path d="M0 0 C3.35620271 1.38877354 5.07298728 2.91677965 7 6 C7 6.66 7 7.32 7 8 C4.6875 8.25 4.6875 8.25 2 8 C0.125 6.25 0.125 6.25 -1 4 C-0.6875 1.75 -0.6875 1.75 0 0 Z " fill="#59BE8D" transform="translate(43,116)"/>
<path d="M0 0 C-1 3 -1 3 -3 4 C-4.54023996 4.06950541 -6.08334988 4.08452357 -7.625 4.0625 C-8.85089844 4.04896484 -8.85089844 4.04896484 -10.1015625 4.03515625 C-11.04128906 4.01775391 -11.04128906 4.01775391 -12 4 C-11.67 3.01 -11.34 2.02 -11 1 C-9.00390625 0.234375 -9.00390625 0.234375 -6.5625 -0.25 C-5.75941406 -0.42015625 -4.95632812 -0.5903125 -4.12890625 -0.765625 C-2 -1 -2 -1 0 0 Z " fill="#2B5670" transform="translate(93,120)"/>
<path d="M0 0 C1.32 1.32 2.64 2.64 4 4 C3.34 4 2.68 4 2 4 C2 4.66 2 5.32 2 6 C2.66 6.33 3.32 6.66 4 7 C3.01 7.495 3.01 7.495 2 8 C1.67 8.99 1.34 9.98 1 11 C-1.0625 12.6875 -1.0625 12.6875 -3 14 C-3.66 13.67 -4.32 13.34 -5 13 C-4.154375 12.13375 -3.30875 11.2675 -2.4375 10.375 C-0.18551255 7.71929492 0.02796514 7.37053814 -0.25 3.6875 C-0.62125 2.3571875 -0.62125 2.3571875 -1 1 C-0.67 0.67 -0.34 0.34 0 0 Z " fill="#D4E8ED" transform="translate(41,109)"/>
<path d="M0 0 C0.886875 0.103125 1.77375 0.20625 2.6875 0.3125 C2.6875 0.6425 2.6875 0.9725 2.6875 1.3125 C1.0375 1.3125 -0.6125 1.3125 -2.3125 1.3125 C-2.3125 1.9725 -2.3125 2.6325 -2.3125 3.3125 C-0.6625 3.3125 0.9875 3.3125 2.6875 3.3125 C2.6875 3.6425 2.6875 3.9725 2.6875 4.3125 C1.2312328 4.67506858 -0.22761185 5.02729793 -1.6875 5.375 C-2.90566406 5.67083984 -2.90566406 5.67083984 -4.1484375 5.97265625 C-6.3125 6.3125 -6.3125 6.3125 -8.3125 5.3125 C-4.12788462 0.38942308 -4.12788462 0.38942308 0 0 Z " fill="#52758A" transform="translate(85.3125,102.6875)"/>
<path d="M0 0 C6.75 0.875 6.75 0.875 9 2 C9 2.99 9 3.98 9 5 C6.03 4.67 3.06 4.34 0 4 C0.66 3.34 1.32 2.68 2 2 C1.34 1.34 0.68 0.68 0 0 Z " fill="#4A6E85" transform="translate(121,103)"/>
<path d="M0 0 C0 0.66 0 1.32 0 2 C-3.90028225 4.60018816 -7.47434569 4.15085514 -12 4 C-8.81646865 0.10901724 -4.81837115 -1.60612372 0 0 Z " fill="#335C75" transform="translate(150,120)"/>
<path d="M0 0 C3.3125 -0.25 3.3125 -0.25 7 0 C8.9375 2 8.9375 2 10 4 C9.01 4.66 8.02 5.32 7 6 C6.34 5.01 5.68 4.02 5 3 C2.43717258 2.27034634 2.43717258 2.27034634 0 2 C0 1.34 0 0.68 0 0 Z " fill="#1E4C68" transform="translate(83,104)"/>
<path d="M0 0 C1.98 0.495 1.98 0.495 4 1 C3.67 2.32 3.34 3.64 3 5 C1.68 5 0.36 5 -1 5 C-0.67 3.35 -0.34 1.7 0 0 Z " fill="#315A73" transform="translate(154,119)"/>
<path d="M0 0 C4.455 0.99 4.455 0.99 9 2 C5 4 5 4 1 4 C0.34 3.67 -0.32 3.34 -1 3 C-0.67 2.01 -0.34 1.02 0 0 Z " fill="#375F77" transform="translate(117,119)"/>
<path d="M0 0 C6.75 -0.125 6.75 -0.125 9 1 C9 1.99 9 2.98 9 4 C6.03 3.67 3.06 3.34 0 3 C0 2.01 0 1.02 0 0 Z " fill="#1B4A67" transform="translate(64,104)"/>
<path d="M0 0 C-1.98 0.99 -1.98 0.99 -4 2 C-3.01 2.66 -2.02 3.32 -1 4 C-6.75 5.125 -6.75 5.125 -9 4 C-8.67 3.01 -8.34 2.02 -8 1 C-5.07175348 0.02391783 -3.04386724 -0.08226668 0 0 Z " fill="#648296" transform="translate(109,103)"/>
<path d="M0 0 C1.98 0.495 1.98 0.495 4 1 C3.67 2.32 3.34 3.64 3 5 C1.68 4.67 0.36 4.34 -1 4 C-0.67 2.68 -0.34 1.36 0 0 Z " fill="#396179" transform="translate(161,96)"/>
<path d="M0 0 C-0.66 1.32 -1.32 2.64 -2 4 C-4.64 4 -7.28 4 -10 4 C-7.18342017 0.590456 -4.32639749 0 0 0 Z " fill="#325A74" transform="translate(24,120)"/>
<path d="M0 0 C2.97 0.99 5.94 1.98 9 3 C9 3.33 9 3.66 9 4 C6.36 4 3.72 4 1 4 C0.67 2.68 0.34 1.36 0 0 Z " fill="#1E4C68" transform="translate(60,119)"/>
<path d="M0 0 C1.67542976 0.28604898 3.34385343 0.61781233 5 1 C2.61426621 2.89213369 0.92824652 4.02391783 -2 5 C-1.125 1.125 -1.125 1.125 0 0 Z " fill="#204D6A" transform="translate(119,104)"/>
</svg>
